HIERARCHY
ROOT SpineBase
{
  OFFSET 0.000000 0.000000 0.000000
  CHANNELS 6 Xposition Yposition Zposition Zrotation Xrotation Yrotation
  JOINT SpineMid
  {
    OFFSET -0.000000 29.913315 0.000000
    CHANNELS 3 Zrotation Xrotation Yrotation
    JOINT SpineShoulder
    {
      OFFSET 0.053210 22.252245 -1.033260
      CHANNELS 3 Zrotation Xrotation Yrotation
      JOINT Neck
      {
        OFFSET 0.072676 7.352200 -0.659537
        CHANNELS 3 Zrotation Xrotation Yrotation
        JOINT Head
        {
          OFFSET -4.343676 13.160311 2.491371
          CHANNELS 3 Zrotation Xrotation Yrotation
          End Site
          {
            OFFSET 0 0 0
          }
        }
      }
      JOINT ShoulderLeft
      {
        OFFSET -12.332467 -3.534070 12.691585
        CHANNELS 3 Zrotation Xrotation Yrotation
        JOINT ElbowLeft
        {
          OFFSET -2.058033 -26.202150 -1.106435
          CHANNELS 3 Zrotation Xrotation Yrotation
          JOINT WristLeft
          {
            OFFSET 0.333258 -19.846514 -18.219997
            CHANNELS 3 Zrotation Xrotation Yrotation
            JOINT HandLeft
            {
              OFFSET -0.226271 -7.239044 -4.861912
              CHANNELS 3 Zrotation Xrotation Yrotation
              JOINT HandTipLeft
              {
                OFFSET -0.919922 -5.808765 -4.579599
                CHANNELS 3 Zrotation Xrotation Yrotation
                End Site
                {
                  OFFSET 0 0 0
                }
              }
              JOINT ThumbLeft
              {
                OFFSET 2.458257 3.391590 -3.626647
                CHANNELS 3 Zrotation Xrotation Yrotation
                End Site
                {
                  OFFSET 0 0 0
                }
              }
            }
          }
        }
      }
      JOINT ShoulderRight
      {
        OFFSET 8.265925 -4.250507 -12.972924
        CHANNELS 3 Zrotation Xrotation Yrotation
        JOINT ElbowRight
        {
          OFFSET 2.915117 -21.050692 -4.597085
          CHANNELS 3 Zrotation Xrotation Yrotation
          JOINT WristRight
          {
            OFFSET -10.795194 -19.821878 -1.564656
            CHANNELS 3 Zrotation Xrotation Yrotation
            JOINT HandRight
            {
              OFFSET -5.960318 -6.459109 0.706059
              CHANNELS 3 Zrotation Xrotation Yrotation
              JOINT HandTipRight
              {
                OFFSET -4.346786 -5.988178 -3.697100
                CHANNELS 3 Zrotation Xrotation Yrotation
                End Site
                {
                  OFFSET 0 0 0
                }
              }
              JOINT ThumbRight
              {
                OFFSET -5.240667 5.627738 -1.966686
                CHANNELS 3 Zrotation Xrotation Yrotation
                End Site
                {
                  OFFSET 0 0 0
                }
              }
            }
          }
        }
      }
    }
  }
  JOINT HipLeft
  {
    OFFSET -4.730154 0.420116 1.688752
    CHANNELS 3 Zrotation Xrotation Yrotation
    JOINT KneeLeft
    {
      OFFSET -13.717472 -19.429404 -25.444721
      CHANNELS 3 Zrotation Xrotation Yrotation
      JOINT AnkleLeft
      {
        OFFSET 10.299652 -24.622669 24.205831
        CHANNELS 3 Zrotation Xrotation Yrotation
        JOINT FootLeft
        {
          OFFSET -7.296179 -3.916098 -9.246646
          CHANNELS 3 Zrotation Xrotation Yrotation
          End Site
          {
            OFFSET 0 0 0
          }
        }
      }
    }
  }
  JOINT HipRight
  {
    OFFSET 4.754488 1.097612 -8.912142
    CHANNELS 3 Zrotation Xrotation Yrotation
    JOINT KneeRight
    {
      OFFSET 10.054363 -28.734702 3.808456
      CHANNELS 3 Zrotation Xrotation Yrotation
      JOINT AnkleRight
      {
        OFFSET 8.958321 -29.587495 7.443911
        CHANNELS 3 Zrotation Xrotation Yrotation
        JOINT FootRight
        {
          OFFSET -7.608447 -3.804964 -9.201876
          CHANNELS 3 Zrotation Xrotation Yrotation
          End Site
          {
            OFFSET 0 0 0
          }
        }
      }
    }
  }
}
MOTION
Frames: 6
Frame Time: 0.033333
4.876871 58.979594 343.601866 11.178422 0.513376 28.270974 0.614734 0.804768 -27.897773 0.277297 -0.386942 0.554327 -16.709292 34.925076 13.028395 0.000000 0.000000 0.000000 -161.364795 30.981993 81.197255 55.347467 -7.773283 64.403401 -2.992153 -0.342922 -6.137024 -13.530639 4.709549 -6.142367 0.000000 0.000000 0.000000 0.000000 0.000000 0.000000 -68.702696 18.139454 25.184180 -43.723120 4.860151 -24.900231 8.368903 36.031067 -11.657978 -7.440906 -8.131307 46.308613 0.000000 0.000000 0.000000 0.000000 0.000000 0.000000 -8.111962 -65.662065 -8.897856 -126.510683 74.203883 89.474087 32.177740 -27.592700 3.824692 0.000000 0.000000 0.000000 -6.799389 28.391012 -21.727749 2.290466 -35.005462 -11.735951 20.624800 -7.815460 -9.707287 0.000000 0.000000 0.000000
5.616175 54.764703 342.743676 11.085567 -0.735668 27.760256 1.795949 0.704612 -27.275722 -0.308618 -0.895915 0.606062 -15.724514 37.142916 12.802461 0.000000 0.000000 0.000000 -145.280530 -10.575198 -10.529320 52.695885 64.334035 78.262077 -2.049936 0.475097 -9.547760 -3.793989 5.099735 -2.020680 0.000000 0.000000 0.000000 0.000000 0.000000 0.000000 -87.664218 -1.109572 19.516118 -17.043917 -9.709649 -17.684499 9.938140 30.372326 -10.492210 -10.883480 -7.187057 44.176022 0.000000 0.000000 0.000000 0.000000 0.000000 0.000000 -3.177957 -68.524052 -1.079234 -149.928367 73.160040 112.414292 45.179786 -38.355612 24.752304 0.000000 0.000000 0.000000 -8.421203 31.304924 -20.356621 6.329189 -41.275687 -11.519158 26.998804 -13.635433 -1.045327 0.000000 0.000000 0.000000
6.119953 51.858383 342.149399 12.076036 -1.895625 25.221838 2.746978 0.628908 -24.589510 -0.685319 -1.107171 0.706746 -16.621774 37.619002 12.261829 0.000000 0.000000 0.000000 -136.270532 -40.665106 -52.726133 -59.154429 71.501350 170.672576 -5.947859 1.968113 -12.120329 9.959860 10.093327 2.484497 0.000000 0.000000 0.000000 0.000000 0.000000 0.000000 -98.941353 -12.651633 11.429890 1.184626 -14.685305 -12.142283 36.446701 -9.469923 -7.735912 -46.467457 25.766297 53.334048 0.000000 0.000000 0.000000 0.000000 0.000000 0.000000 7.785898 -70.149829 13.820568 -167.125330 70.443380 129.347287 53.036748 -42.325387 40.728886 0.000000 0.000000 0.000000 -13.534245 35.742597 -15.555885 14.218161 -49.064619 -8.959637 33.235114 -18.748822 5.329095 0.000000 0.000000 0.000000
6.256173 50.319771 341.874714 13.886310 -1.665998 24.508017 3.560708 0.756009 -23.849776 -1.072205 -1.374739 0.834181 -18.419812 34.703929 10.972810 0.000000 0.000000 0.000000 -126.390723 -55.832182 -62.726358 -58.493909 58.056881 155.845331 -7.043523 5.612935 -11.342517 13.998133 11.249215 5.176338 0.000000 0.000000 0.000000 0.000000 0.000000 0.000000 -105.915181 -18.641022 4.045381 12.951342 -13.916514 -8.466806 49.623730 -18.219291 -3.889371 -64.980682 27.505029 59.857637 0.000000 0.000000 0.000000 0.000000 0.000000 0.000000 13.150673 -71.886998 21.458326 -169.535363 68.192844 130.366474 48.569521 -40.355251 41.684294 0.000000 0.000000 0.000000 -18.219769 37.380414 -13.567844 20.972359 -52.814173 -5.521379 38.975378 -24.584259 6.293974 0.000000 0.000000 0.000000
6.304787 49.722250 341.686148 14.407729 -2.582456 14.848406 4.097344 1.327109 -14.101502 -1.411524 -1.575531 0.912834 -19.555230 31.055571 9.596787 0.000000 0.000000 0.000000 -109.224759 -62.640259 -54.299647 -49.460886 48.509929 138.650272 -6.185718 7.569274 -10.399929 12.948274 11.828838 7.690521 0.000000 0.000000 0.000000 0.000000 0.000000 0.000000 -106.890139 -21.920498 0.545080 15.027266 -9.415103 -4.920117 45.220662 -20.079847 -2.118324 -59.423165 28.060655 59.086269 0.000000 0.000000 0.000000 0.000000 0.000000 0.000000 43.626277 -68.116676 54.225315 -173.058207 65.968946 132.693490 41.992613 -37.912419 41.009239 0.000000 0.000000 0.000000 -28.672734 38.919309 1.044515 29.939006 -57.329064 0.067315 39.501093 -28.093750 5.686140 0.000000 0.000000 0.000000
6.145917 51.005977 341.427139 15.911185 0.239546 16.207539 4.726325 1.399086 -15.729730 -1.349175 -1.297680 0.930810 -26.080927 18.285450 7.033918 0.000000 0.000000 0.000000 -106.158439 -63.816642 -53.950293 -44.877670 42.101322 130.439333 -3.577174 11.233338 -7.410769 8.340548 1.617536 2.916125 0.000000 0.000000 0.000000 0.000000 0.000000 0.000000 -106.997632 -24.076209 -7.246319 16.292784 -11.511491 -1.905706 44.883558 -18.747860 -2.411925 -61.642283 20.969576 62.209658 0.000000 0.000000 0.000000 0.000000 0.000000 0.000000 41.731761 -70.744644 53.464395 -167.831770 67.282987 127.111799 33.377702 -34.629302 40.125302 0.000000 0.000000 0.000000 -32.290167 37.108529 -1.415155 37.950667 -53.524879 5.661450 35.076820 -28.349081 5.449646 0.000000 0.000000 0.000000
